<?xml version="1.0" encoding="UTF-8" standalone="no"?>
<!-- Created with Inkscape (http://www.inkscape.org/) -->

<svg
   width="512"
   height="512"
   viewBox="0 0 512 512"
   version="1.1"
   id="svg1"
   sodipodi:docname="book.svg"
   inkscape:version="1.3.2 (091e20e, 2023-11-25, custom)"
   inkscape:export-filename="..\..\LMS\assets\book.svg"
   inkscape:export-xdpi="96"
   inkscape:export-ydpi="96"
   xmlns:inkscape="http://www.inkscape.org/namespaces/inkscape"
   xmlns:sodipodi="http://sodipodi.sourceforge.net/DTD/sodipodi-0.dtd"
   xmlns="http://www.w3.org/2000/svg"
   xmlns:svg="http://www.w3.org/2000/svg">
  <sodipodi:namedview
     id="namedview1"
     pagecolor="#505050"
     bordercolor="#ffffff"
     borderopacity="1"
     inkscape:showpageshadow="0"
     inkscape:pageopacity="0"
     inkscape:pagecheckerboard="1"
     inkscape:deskcolor="#505050"
     inkscape:zoom="0.70710678"
     inkscape:cx="408.00061"
     inkscape:cy="204.35386"
     inkscape:window-width="1920"
     inkscape:window-height="1009"
     inkscape:window-x="-8"
     inkscape:window-y="-8"
     inkscape:window-maximized="1"
     inkscape:current-layer="layer1" />
  <defs
     id="defs1" />
  <g
     id="layer1"
     inkscape:label="Book">
    <path
       style="color:#000000;fill:#000000;fill-rule:evenodd;-inkscape-stroke:none"
       d="M 84.503906,87.880123 V 420.31306 A 61.343191,61.343191 45 0 0 145.8471,481.65625 H 446.0293 V 38.529297 H 133.85473 A 49.350826,49.350826 135 0 0 84.503906,87.880123 Z M 139.35827,72.929687 H 411.62891 V 447.25586 H 141.85033 a 22.947992,22.947992 45 0 1 -22.94799,-22.94799 l 0,-330.922254 a 20.455929,20.455929 135 0 1 20.45593,-20.455929 z"
       id="path2"
       inkscape:label="5" />
    <path
       style="color:#000000;fill:#000000;-inkscape-stroke:none"
       d="m 90,405.45 v 4.8 A 53.75,53.75 45 0 0 143.75,464 H 447.5 V 354.5 H 140.95 A 50.95,50.95 135 0 0 90,405.45 Z M 147.25,384.5 H 417.5 V 434 H 146.95 A 26.95,26.95 45 0 1 120,407.05 25.010648,25.010648 140.39146 0 1 147.25,384.5 Z"
       id="path10"
       transform="matrix(0.97202798,0,0,1,11.017483,16.5)"
       inkscape:label="4" />
    <rect
       style="fill:#000000;stroke:#000000"
       id="rect1-4"
       width="213.54625"
       height="28.284271"
       x="159.2538"
       y="289.32336"
       ry="14.142136"
       inkscape:label="3" />
    <rect
       style="fill:#000000;stroke:#000000"
       id="rect1-7"
       width="213.54625"
       height="28.284271"
       x="159.41673"
       y="200.39951"
       ry="14.142136"
       inkscape:label="2" />
    <rect
       style="fill:#000000;stroke:#000000"
       id="rect1"
       width="213.54625"
       height="28.284271"
       x="158.39191"
       y="117.2584"
       ry="14.142136"
       inkscape:label="1" />
  </g>
</svg>
