<?xml version="1.0" encoding="UTF-8" standalone="no"?>
<!-- Created with Inkscape (http://www.inkscape.org/) -->

<svg
   width="512"
   height="512"
   viewBox="0 0 512 512"
   version="1.1"
   id="svg1"
   xmlns="http://www.w3.org/2000/svg"
   xmlns:svg="http://www.w3.org/2000/svg">
  <defs
     id="defs1" />
  <g
     id="layer1">
    <path
       style="color:#000000;fill:#000000;fill-rule:evenodd;-inkscape-stroke:none"
       d="M 84.503906,87.880123 V 420.31306 A 61.343191,61.343191 45 0 0 145.8471,481.65625 H 446.0293 V 38.529297 H 133.85473 A 49.350826,49.350826 135 0 0 84.503906,87.880123 Z M 139.35827,72.929687 H 411.62891 V 447.25586 H 141.85033 A 22.947992,22.947992 45 0 1 118.90234,424.30787 V 93.385616 a 20.455929,20.455929 135 0 1 20.45593,-20.455929 z"
       id="path2" />
    <path
       style="color:#000000;fill:#000000;-inkscape-stroke:none"
       d="m 90,405.45 v 4.8 A 53.75,53.75 45 0 0 143.75,464 H 447.5 V 354.5 H 140.95 A 50.95,50.95 135 0 0 90,405.45 Z M 147.25,384.5 H 417.5 V 434 H 146.95 A 26.95,26.95 45 0 1 120,407.05 25.010648,25.010648 140.39146 0 1 147.25,384.5 Z"
       id="path10"
       transform="matrix(0.97202798,0,0,1,11.017483,16.5)" />
    <rect
       style="fill:#000000;stroke:#000000"
       id="rect1-4"
       width="213.54625"
       height="28.284271"
       x="159.2538"
       y="289.32336"
       ry="14.142136" />
    <rect
       style="fill:#000000;stroke:#000000"
       id="rect1-7"
       width="213.54625"
       height="28.284271"
       x="159.41673"
       y="200.39951"
       ry="14.142136" />
    <rect
       style="fill:#000000;stroke:#000000"
       id="rect1"
       width="213.54625"
       height="28.284271"
       x="158.39191"
       y="117.2584"
       ry="14.142136" />
  </g>
</svg>
