<?xml version="1.0" encoding="UTF-8" standalone="no"?>
<!-- Created with Inkscape (http://www.inkscape.org/) -->

<svg
   width="512"
   height="512"
   viewBox="0 0 512 512"
   version="1.1"
   id="svg1"
   xmlns="http://www.w3.org/2000/svg"
   xmlns:svg="http://www.w3.org/2000/svg">
  <defs
     id="defs1" />
  <g
     id="layer1">
    <path
       style="color:#000000;fill:#000000;fill-rule:evenodd;-inkscape-stroke:none"
       d="M 84.503906,87.880123 V 420.31306 A 61.343191,61.343191 45 0 0 145.8471,481.65625 H 446.0293 V 38.529297 H 133.85473 A 49.350826,49.350826 135 0 0 84.503906,87.880123 Z M 139.35827,72.929687 H 411.62891 V 447.25586 H 141.85033 a 22.947992,22.947992 45 0 1 -22.94799,-22.94799 l 0,-330.922254 a 20.455929,20.455929 135 0 1 20.45593,-20.455929 z"
       id="path2" />
    <path
       style="color:#000000;fill:#000000;-inkscape-stroke:none"
       d="m 90,405.45 v 4.8 A 53.75,53.75 45 0 0 143.75,464 H 447.5 V 354.5 H 140.95 A 50.95,50.95 135 0 0 90,405.45 Z M 147.25,384.5 H 417.5 V 434 H 146.95 A 26.95,26.95 45 0 1 120,407.05 25.010648,25.010648 140.39146 0 1 147.25,384.5 Z"
       id="path10"
       transform="matrix(0.97202798,0,0,1,11.017483,16.5)" />
    <rect
       style="fill:#000000;fill-opacity:1;stroke:#000000;stroke-width:1;stroke-dasharray:none;stroke-opacity:1"
       id="rect12"
       width="40.305088"
       height="130.81476"
       x="-289.03461"
       y="-328.98636"
       ry="19.091883"
       transform="rotate(-179.23066)" />
    <path
       style="color:#000000;fill:#000000;fill-opacity:0.963731;stroke:#000000;stroke-width:10.2152;stroke-dasharray:none;stroke-opacity:0.963731"
       d="m 119.19884,115.24262 -0.14618,271.06735 a 14.010841,14.010841 23.389145 0 0 23.61129,10.21221 L 273.14269,273.76883 a 30.67573,30.67573 90.144471 0 0 0.11241,-44.57842 L 142.73272,105.14929 a 13.934606,13.934606 156.78623 0 0 -23.53388,10.09333 z m 35.59171,52.63028 91.71726,82.90054 -93.01172,87.5039 z"
       id="path5"
       transform="matrix(0.0056104,-0.56727071,0.56727071,0.0056104,121.85447,281.60646)" />
  </g>
</svg>
